<svg width="1440" height="221" viewBox="0 0 1440 221" fill="none" xmlns="http://www.w3.org/2000/svg">
<g id="flow" clip-path="url(#clip0)">
<path id="Vector" d="M1440 113.181C970.685 113.181 373.148 198.433 0 221V52H1440V113.181Z" fill="#B589D6"/>
<path id="Vector_2" d="M-0.961914 218.496C219.542 201.654 410.391 178.264 590.901 156.141C642.443 149.824 693.141 143.611 743.445 137.682C969.948 110.99 1188.47 90.0819 1440 91.5753V2H-0.961914V218.496Z" fill="#9969C7"/>
<path id="Vector_3" d="M1360.48 1.53833C1142.61 8.29616 946.097 47.1086 743.274 90.5552C723.385 94.8156 703.436 99.1205 683.4 103.444C474.695 148.481 256.574 195.55 -0.5 215.46V1.53833H1360.48Z" fill="#804FB3"/>
</g>
<defs>
<clipPath id="clip0">
<rect width="1440" height="221" fill="white"/>
</clipPath>
</defs>
</svg>
