<svg width="25" height="25" viewBox="0 0 25 25" fill="none" xmlns="http://www.w3.org/2000/svg">
<path d="M12.6236 0.75386C5.99099 0.75386 0.618896 6.10759 0.618896 12.7108C0.618896 17.9948 4.05823 22.4757 8.82709 24.055C9.42732 24.1676 9.64741 23.7979 9.64741 23.4801C9.64741 23.1961 9.63741 22.4438 9.6324 21.4474C6.29311 22.1688 5.58883 19.8432 5.58883 19.8432C5.04262 18.4631 4.25331 18.0945 4.25331 18.0945C3.16589 17.3531 4.33734 17.3681 4.33734 17.3681C5.54281 17.4518 6.17606 18.5996 6.17606 18.5996C7.24648 20.4281 8.98615 19.9 9.67242 19.5941C9.78046 18.8208 10.0896 18.2937 10.4327 17.9948C7.76668 17.6959 4.96459 16.6676 4.96459 12.0861C4.96459 10.7808 5.42977 9.71461 6.20007 8.87762C6.06502 8.57571 5.65986 7.36009 6.30511 5.71301C6.30511 5.71301 7.3105 5.39217 9.60639 6.9386C10.5668 6.67256 11.5872 6.54103 12.6076 6.53505C13.628 6.54103 14.6484 6.67256 15.6087 6.9386C17.8896 5.39217 18.895 5.71301 18.895 5.71301C19.5403 7.36009 19.1351 8.57571 19.0151 8.87762C19.7804 9.71461 20.2455 10.7808 20.2455 12.0861C20.2455 16.6795 17.4394 17.6909 14.7684 17.9848C15.1886 18.3436 15.5787 19.0769 15.5787 20.1969C15.5787 21.7971 15.5637 23.0825 15.5637 23.4711C15.5637 23.785 15.7738 24.1586 16.389 24.0391C21.1919 22.4707 24.6282 17.9868 24.6282 12.7108C24.6282 6.10759 19.2531 0.75386 12.6236 0.75386Z" fill="white"/>
</svg>
